<?xml version="1.0" encoding="UTF-8" standalone="no"?>
<!-- Created with PixiEditor (https://pixieditor.net) -->

<svg
   version="1.1"
   viewBox="0 0 480.05194 531.94885"
   id="svg3"
   sodipodi:docname="Castle.svg"
   width="480.05194"
   height="531.94885"
   inkscape:version="1.4.2 (f4327f4, 2025-05-13)"
   xmlns:inkscape="http://www.inkscape.org/namespaces/inkscape"
   xmlns:sodipodi="http://sodipodi.sourceforge.net/DTD/sodipodi-0.dtd"
   xmlns="http://www.w3.org/2000/svg"
   xmlns:svg="http://www.w3.org/2000/svg">
  <defs
     id="defs3" />
  <sodipodi:namedview
     id="namedview3"
     pagecolor="#505050"
     bordercolor="#ffffff"
     borderopacity="1"
     inkscape:showpageshadow="0"
     inkscape:pageopacity="0"
     inkscape:pagecheckerboard="1"
     inkscape:deskcolor="#505050"
     inkscape:zoom="1.811553"
     inkscape:cx="-29.256665"
     inkscape:cy="206.7287"
     inkscape:window-width="3840"
     inkscape:window-height="2131"
     inkscape:window-x="-9"
     inkscape:window-y="-9"
     inkscape:window-maximized="1"
     inkscape:current-layer="svg3" />
  <g
     opacity="1"
     id="New folder"
     transform="matrix(1.9249035,0,0,1.9249035,9.9999998,9.9999998)">
    <path
       d="m 52,23.3 c 0,16.8 0.3,23.6 1.2,24.5 0.9,0.9 16.9,1.2 65.9,1.2 35.6,0 65.4,-0.3 66.3,-0.6 1.4,-0.5 1.6,-3.6 1.6,-24.5 V 0 H 174.5 162 V 11 22.1 L 147.8,21.8 133.5,21.5 133.2,10.7 132.9,0 H 119.5 106 V 11 22 H 92 78 V 11 0 H 65 52 Z"
       fill-rule="nonzero"
       fill="#208060"
       fill-opacity="1"
       stroke="#208060"
       stroke-width="0"
       stroke-linecap="butt"
       stroke-linejoin="miter"
       opacity="1"
       id="Path"
       style="fill:#5faf8f;fill-opacity:1;stroke:#000000;stroke-width:10.3901;stroke-dasharray:none;stroke-opacity:1" />
    <path
       d="m 69.7,62.7 c -1,0.9 -0.9,183.1 0.1,183.6 0.4,0.3 4.8,0.1 9.7,-0.4 5,-0.5 12,-1.1 15.7,-1.5 l 6.7,-0.5 0.3,-28.7 c 0.3,-27.9 0.4,-28.8 2.6,-32.4 5.8,-9.3 17.9,-11.1 26.3,-4.1 5.6,4.8 5.9,6.5 5.9,37.3 0,15.4 0.3,28 0.8,28 2.8,0.1 25.5,2.1 29,2.6 l 4.2,0.6 V 154.6 62 H 120.7 C 93,62 70,62.3 69.7,62.7 Z m 57.2,26.1 c 6,4.5 6.2,5 6.4,27.7 l 0.2,21 -13.8,0.3 -13.8,0.3 0.3,-21.3 c 0.3,-20.1 0.4,-21.5 2.5,-24.4 4.5,-6.3 12.5,-7.9 18.2,-3.6 z"
       fill-rule="nonzero"
       fill="#208060"
       fill-opacity="1"
       stroke="#208060"
       stroke-width="0"
       stroke-linecap="butt"
       stroke-linejoin="miter"
       opacity="1"
       id="path1"
       style="fill:#5faf8f;fill-opacity:1;stroke:#000000;stroke-width:10.3901;stroke-dasharray:none;stroke-opacity:1" />
    <path
       d="m 0,176.1 c 0,70.1 0.300003,88 1.3,87.5 7.2,-3 31.6,-10.2 41.8,-12.3 L 56,248.7 55.8,168.6 55.5,88.5 H 48 40.5 L 40.2,98.7 39.9,109 H 29 18 V 98.5 88 H 9 0 Z"
       fill-rule="nonzero"
       fill="#208060"
       fill-opacity="1"
       stroke="#208060"
       stroke-width="0"
       stroke-linecap="butt"
       stroke-linejoin="miter"
       opacity="1"
       id="path2"
       style="fill:#5faf8f;fill-opacity:1;stroke:#000000;stroke-width:10.3901;stroke-dasharray:none;stroke-opacity:1" />
    <path
       d="m 184,168.5 v 80.4 l 3.8,0.6 c 8.4,1.4 33.3,7.9 41.9,11 l 9.3,3.3 V 175.9 88 h -9 -9 v 10.5 10.6 l -10.7,-0.3 -10.8,-0.3 -0.3,-10.3 -0.3,-10.2 h -7.4 -7.5 z"
       fill-rule="nonzero"
       fill="#208060"
       fill-opacity="1"
       stroke="#208060"
       stroke-width="0"
       stroke-linecap="butt"
       stroke-linejoin="miter"
       opacity="1"
       id="path3"
       style="fill:#5faf8f;fill-opacity:1;stroke:#000000;stroke-width:10.3901;stroke-dasharray:none;stroke-opacity:1" />
  </g>
</svg>
