<!-- Created with PixiEditor (https://pixieditor.net) -->
<svg version="1.1" viewBox="0 0 240 264" xmlns="http://www.w3.org/2000/svg">
  <g opacity="1" id="New folder">
    <path d="M52 23.3C52 40.1 52.3 46.9 53.2 47.8C54.1 48.7 70.1 49 119.1 49C154.7 49 184.5 48.7 185.4 48.4C186.8 47.9 187 44.8 187 23.9L187 0L174.5 0L162 0L162 11L162 22.1L147.8 21.8L133.5 21.5L133.2 10.7L132.9 0L119.5 0L106 0L106 11L106 22L92 22L78 22L78 11L78 0L65 0L52 0L52 23.3Z" fill-rule="nonzero" transform="matrix(1, 0, 0, 1, 0, 0)" fill="#208060" fill-opacity="1" stroke="#208060" stroke-width="0" stroke-linecap="butt" stroke-linejoin="miter" opacity="1" id="Path" />
    <path d="M69.7 62.7C68.7 63.6 68.8 245.8 69.8 246.3C70.2 246.6 74.6 246.4 79.5 245.9C84.5 245.4 91.5 244.8 95.2 244.4L101.9 243.9L102.2 215.2C102.5 187.3 102.6 186.4 104.8 182.8C110.6 173.5 122.7 171.7 131.1 178.7C136.7 183.5 137 185.2 137 216C137 231.4 137.3 244 137.8 244C140.6 244.1 163.3 246.1 166.8 246.6L171 247.2L171 154.6L171 62L120.7 62C93 62 70 62.3 69.7 62.7ZM126.9 88.8C132.9 93.3 133.1 93.8 133.3 116.5L133.5 137.5L119.7 137.8L105.9 138.1L106.2 116.8C106.5 96.7 106.6 95.3 108.7 92.4C113.2 86.1 121.2 84.5 126.9 88.8Z" fill-rule="nonzero" transform="matrix(1, 0, 0, 1, 0, 0)" fill="#208060" fill-opacity="1" stroke="#208060" stroke-width="0" stroke-linecap="butt" stroke-linejoin="miter" opacity="1" id="Path" />
    <path d="M0 176.1C0 246.2 0.300003 264.1 1.3 263.6C8.5 260.6 32.9 253.4 43.1 251.3L56 248.7L55.8 168.6L55.5 88.5L48 88.5L40.5 88.5L40.2 98.7L39.9 109L29 109L18 109L18 98.5L18 88L9 88L0 88L0 176.1Z" fill-rule="nonzero" transform="matrix(1, 0, 0, 1, 0, 0)" fill="#208060" fill-opacity="1" stroke="#208060" stroke-width="0" stroke-linecap="butt" stroke-linejoin="miter" opacity="1" id="Path" />
    <path d="M184 168.5L184 248.9L187.8 249.5C196.2 250.9 221.1 257.4 229.7 260.5L239 263.8L239 175.9L239 88L230 88L221 88L221 98.5L221 109.1L210.3 108.8L199.5 108.5L199.2 98.2L198.9 88L191.5 88L184 88L184 168.5Z" fill-rule="nonzero" transform="matrix(1, 0, 0, 1, 0, 0)" fill="#208060" fill-opacity="1" stroke="#208060" stroke-width="0" stroke-linecap="butt" stroke-linejoin="miter" opacity="1" id="Path" />
  </g>
</svg>